<?xml version="1.0" encoding="UTF-8"?>
<svg version="1.1" xmlns="http://www.w3.org/2000/svg" width="945" height="182">
<path d="M0 0 C311.85 0 623.7 0 945 0 C945 60.06 945 120.12 945 182 C633.15 182 321.3 182 0 182 C0 121.94 0 61.88 0 0 Z " fill="#F7F9F9" transform="translate(0,0)"/>
<path d="M0 0 C24.42 0 48.84 0 74 0 C74.495 6.93 74.495 6.93 75 14 C75.43193394 17.33452998 75.8878449 20.6254757 76.4375 23.9375 C76.55931641 24.72189453 76.68113281 25.50628906 76.80664062 26.31445312 C77.35246434 29.69969143 77.97663194 32.91897026 78.92895508 36.22119141 C80.11063682 40.39034343 81.04875902 44.57265072 81.953125 48.80859375 C82.32585529 50.53169018 82.69874545 52.25475204 83.07177734 53.9777832 C83.26423035 54.87018707 83.45668335 55.76259094 83.65496826 56.68203735 C86.96223011 71.99724813 90.3930301 87.25415514 94.33496094 102.42041016 C95.58596229 107.27286255 96.79017849 112.13714602 98 117 C100.25539735 114.74460265 100.48302039 113.74976453 101.19140625 110.70703125 C101.51818359 109.32729126 101.51818359 109.32729126 101.8515625 107.91967773 C102.08617188 106.89430908 102.32078125 105.86894043 102.5625 104.8125 C102.81644531 103.72461182 103.07039063 102.63672363 103.33203125 101.51586914 C103.90554298 99.05392803 104.47580028 96.59122738 105.04345703 94.12792969 C105.88721905 90.47350189 106.75055932 86.82391571 107.61730957 83.17488098 C117.50828091 41.96453983 117.50828091 41.96453983 123 0 C124.98 0 126.96 0 129 0 C129 0.99 129 1.98 129 3 C129.72832031 3.26039062 130.45664063 3.52078125 131.20703125 3.7890625 C134.0745082 5.03230426 136.22540684 6.46050311 138.6875 8.375 C139.45449219 8.96023438 140.22148437 9.54546875 141.01171875 10.1484375 C143.00584574 12.00544377 143.97087056 13.50147185 145 16 C145.66 16 146.32 16 147 16 C154.14660048 29.80221314 154.94419468 38.92476721 151.8125 54.125 C151.58691406 55.25953613 151.36132812 56.39407227 151.12890625 57.56298828 C149.44415946 65.98555229 147.66552628 74.38871114 145.88061523 82.79052734 C143.97007378 91.89312274 142.34482643 101.04139541 140.78710938 110.21044922 C139.87279003 115.5049781 138.86451265 120.71579621 137.515625 125.91796875 C135.75394576 132.73675653 134.5504894 139.62203329 133.375 146.5625 C133.1584375 147.79935547 132.941875 149.03621094 132.71875 150.31054688 C131.594662 156.87119629 130.68465479 163.36082423 130.23291016 170.00366211 C130 172 130 172 129 173 C127.09756238 173.09391296 125.19161541 173.11743658 123.28686523 173.11352539 C122.0656749 173.11344986 120.84448456 173.11337433 119.58628845 173.11329651 C118.24372314 173.10818911 116.90115825 173.10297311 115.55859375 173.09765625 C114.19238842 173.09579199 112.82618243 173.09436813 111.4599762 173.09336853 C107.85798305 173.08954394 104.25603 173.07971417 100.65405273 173.06866455 C96.98096255 173.05844916 93.30786591 173.05387064 89.63476562 173.04882812 C82.42315877 173.03809184 75.211585 173.02101614 68 173 C67.89977539 172.31711914 67.79955078 171.63423828 67.69628906 170.93066406 C65.66025104 157.14931826 63.41385898 143.47038168 60.57946777 129.83184814 C59.4093897 124.11369853 58.30920523 118.38164828 57.1953125 112.65234375 C56.68904227 110.06049995 56.18252859 107.46870369 55.67578125 104.87695312 C54.90190273 100.91841889 54.12893386 96.9597156 53.35986328 93.00024414 C49.8467916 74.93189309 46.09526572 56.94513313 42 39 C39.57484145 48.89168986 38.37467383 58.39220878 37.875 68.5625 C37.79484484 70.02331085 37.71402019 71.4840851 37.63256836 72.94482422 C37.08848669 82.96532107 36.75439387 92.9884316 36.46435547 103.01928711 C36.06894103 115.23660064 35.28544028 127.42756072 34.5 139.625 C34.43410675 140.65377258 34.3682135 141.68254517 34.30032349 142.74249268 C34.10883979 145.71651004 33.91454915 148.69032635 33.71875 151.6640625 C33.66146225 152.54328369 33.6041745 153.42250488 33.54515076 154.32836914 C33.12716963 160.56662351 32.56646479 166.76888731 32 173 C16.49 173 0.98 173 -15 173 C-14.36851059 162.8961695 -13.70538379 152.81350644 -12.87890625 142.7265625 C-12.77408432 141.43793304 -12.66926239 140.14930359 -12.56126404 138.82162476 C-12.3412968 136.12090449 -12.12014396 133.42028452 -11.89819336 130.71972656 C-11.67427857 127.99364123 -11.45229958 125.26740983 -11.23217773 122.54101562 C-9.10333093 96.17699418 -9.10333093 96.17699418 -7.62368774 83.51315308 C-6.97001434 77.90342027 -6.59725391 72.33256634 -6.34570312 66.69140625 C-6.20507985 63.84033829 -6.01123096 61.0658883 -5.53125 58.25 C-4.71842141 53.27740157 -4.42830836 48.27270139 -4.0625 43.25 C-3.97750244 42.12070068 -3.89250488 40.99140137 -3.80493164 39.82788086 C-3.44052544 34.98285113 -3.08296093 30.13734344 -2.72949219 25.29150391 C-2.55281272 22.87163762 -2.3747109 20.45187469 -2.19506836 18.03222656 C-2.02579124 15.75187921 -1.85983803 13.47128223 -1.69750977 11.19042969 C-1.62072998 10.15950195 -1.5439502 9.12857422 -1.46484375 8.06640625 C-1.399021 7.15834229 -1.33319824 6.25027832 -1.26538086 5.31469727 C-1 3 -1 3 0 0 Z " fill="#E0DEBC" transform="translate(18,7)"/>
<path d="M0 0 C7.38531922 0.10719346 14.76939571 0.0931176 22.15530168 0.07726416 C35.77544914 0.05123816 49.3936281 0.1168325 63.01320362 0.2376123 C76.46677464 0.35660978 89.91952269 0.43306137 103.37361621 0.45466857 C104.21515182 0.45604336 105.05668742 0.45741816 105.9237241 0.45883461 C110.19875238 0.46560277 114.47378136 0.47162989 118.74881112 0.47737213 C148.90314062 0.51920206 179.05640348 0.65344399 209.21013355 0.84342437 C238.47472496 1.02758787 267.73902276 1.16902534 297.00407886 1.25358062 C298.36100737 1.25752641 298.36100737 1.25752641 299.74534857 1.2615519 C308.83123219 1.28792594 317.91711805 1.31344168 327.00300586 1.33832909 C345.5063087 1.38903152 364.00959263 1.44545652 382.51286792 1.50535064 C383.36331908 1.50809644 384.21377024 1.51084224 385.08999264 1.51367124 C441.72700844 1.69718678 498.36339901 2.0155847 554.99968433 2.35221343 C554.99968433 9.94221343 554.99968433 17.53221343 554.99968433 25.35221343 C339.50968433 25.35221343 124.01968433 25.35221343 -98.00031567 25.35221343 C-67.29075649 2.32004405 -37.35077364 -0.56449143 0 0 Z " fill="#008691" transform="translate(387.000315669924,154.64778656698763)"/>
<path d="M0 0 C0.03738281 0.79019531 0.07476562 1.58039062 0.11328125 2.39453125 C0.53622231 9.65087305 1.31207029 16.75929195 2.4375 23.9375 C2.55971924 24.72938721 2.68193848 25.52127441 2.80786133 26.3371582 C3.35585413 29.7137766 3.97887126 32.92673518 4.92895508 36.22119141 C6.11063682 40.39034343 7.04875902 44.57265072 7.953125 48.80859375 C8.32585529 50.53169018 8.69874545 52.25475204 9.07177734 53.9777832 C9.36045685 55.31638901 9.36045685 55.31638901 9.65496826 56.68203735 C12.96223011 71.99724813 16.3930301 87.25415514 20.33496094 102.42041016 C21.58596229 107.27286255 22.79017849 112.13714602 24 117 C26.25539735 114.74460265 26.48302039 113.74976453 27.19140625 110.70703125 C27.40925781 109.78720459 27.62710938 108.86737793 27.8515625 107.91967773 C28.08617187 106.89430908 28.32078125 105.86894043 28.5625 104.8125 C28.94341797 103.18066772 28.94341797 103.18066772 29.33203125 101.51586914 C29.90554298 99.05392803 30.47580028 96.59122738 31.04345703 94.12792969 C31.88721905 90.47350189 32.75055932 86.82391571 33.61730957 83.17488098 C43.50828091 41.96453983 43.50828091 41.96453983 49 0 C50.98 0 52.96 0 55 0 C55 0.99 55 1.98 55 3 C55.72832031 3.26039062 56.45664063 3.52078125 57.20703125 3.7890625 C60.0745082 5.03230426 62.22540684 6.46050311 64.6875 8.375 C65.45449219 8.96023438 66.22148437 9.54546875 67.01171875 10.1484375 C69.00584574 12.00544377 69.97087056 13.50147185 71 16 C71.66 16 72.32 16 73 16 C80.14660048 29.80221314 80.94419468 38.92476721 77.8125 54.125 C77.58691406 55.25953613 77.36132812 56.39407227 77.12890625 57.56298828 C75.44415946 65.98555229 73.66552628 74.38871114 71.88061523 82.79052734 C69.97007378 91.89312274 68.34482643 101.04139541 66.78710938 110.21044922 C65.87279003 115.5049781 64.86451265 120.71579621 63.515625 125.91796875 C61.75394576 132.73675653 60.5504894 139.62203329 59.375 146.5625 C59.1584375 147.79935547 58.941875 149.03621094 58.71875 150.31054688 C57.594662 156.87119629 56.68465479 163.36082423 56.23291016 170.00366211 C56 172 56 172 55 173 C35.53 173 16.06 173 -4 173 C-4 116.24 -4 59.48 -4 1 C-2 0 -2 0 0 0 Z " fill="#286C7B" transform="translate(92,7)"/>
<path d="M0 0 C8.8488239 -0.02312589 17.69763747 -0.04091634 26.54648495 -0.05181217 C30.65494285 -0.05704046 34.76338014 -0.06413713 38.87182617 -0.07543945 C42.83346828 -0.08627025 46.79509052 -0.09227724 50.75674629 -0.09487724 C52.27148311 -0.09673114 53.78621879 -0.1003511 55.30094719 -0.10573006 C57.41541813 -0.11294307 59.52980594 -0.11399083 61.64428711 -0.11352539 C62.85007919 -0.115746 64.05587128 -0.11796661 65.29820251 -0.12025452 C68 0 68 0 69 1 C69.35313421 4.04859094 69.64676732 7.08334428 69.90234375 10.140625 C69.98433517 11.081978 70.0663266 12.02333099 70.15080261 12.99320984 C70.41786713 16.07841264 70.67793404 19.16415795 70.9375 22.25 C71.11886841 24.36923138 71.30034658 26.48845336 71.48193359 28.60766602 C72.55214354 41.19169014 73.52261352 53.77693664 74.35131836 66.37915039 C74.83070106 73.65539957 75.37293118 80.92242486 76 88.1875 C76.10658936 89.4413147 76.10658936 89.4413147 76.21533203 90.72045898 C76.63420296 95.45277985 77.13021574 100.17151803 77.67556763 104.89099121 C78.97687131 116.21094244 79.94366383 127.55149817 80.85986328 138.90844727 C81.12772615 142.22121536 81.40152673 145.53345869 81.67578125 148.84570312 C81.84931041 150.97392966 82.02250008 153.1021839 82.1953125 155.23046875 C82.27653351 156.20968796 82.35775452 157.18890717 82.44143677 158.19779968 C82.5518782 159.5813842 82.5518782 159.5813842 82.66455078 160.99291992 C82.72957794 161.79356369 82.7946051 162.59420746 82.86160278 163.41911316 C83.03262977 166.60849301 83 169.80603788 83 173 C67.49 173 51.98 173 36 173 C35.49300053 165.40679858 34.98698651 157.8136069 34.4885788 150.21984863 C34.2560359 146.68027084 34.02213986 143.14079695 33.78442383 139.6015625 C32.72376067 123.79416812 31.78066506 108.00816231 31.33839417 92.16864014 C31.17050573 86.4506196 30.84383277 80.8085169 30.2230072 75.12149048 C29.95938663 72.61364081 29.8293516 70.1178356 29.75390625 67.59765625 C29.72240479 66.69233154 29.69090332 65.78700684 29.65844727 64.85424805 C29.62678467 63.93297119 29.59512207 63.01169434 29.5625 62.0625 C29.33675616 50.86900347 29.33675616 50.86900347 27 40 C26.34 39.67 25.68 39.34 25 39 C24.5078125 37.03125 24.5078125 37.03125 24.125 34.5 C23.31000411 29.94906295 21.92765969 26.1501568 19.90234375 22.0078125 C19.00836853 20.01862089 18.46254553 18.12675573 18 16 C17.34 16 16.68 16 16 16 C15.360625 15.154375 14.72125 14.30875 14.0625 13.4375 C10.8822156 9.37059086 6.65350831 7.15492221 2.23046875 4.61328125 C1.49441406 4.08089844 0.75835937 3.54851563 0 3 C0 2.01 0 1.02 0 0 Z " fill="#E0DEBB" transform="translate(147,7)"/>
<path d="M0 0 C0 56.43 0 112.86 0 171 C-0.33 171 -0.66 171 -1 171 C-1.10022461 170.31711914 -1.20044922 169.63423828 -1.30371094 168.93066406 C-1.78056505 165.70297803 -2.26529907 162.47651667 -2.75 159.25 C-2.90726563 158.1775 -3.06453125 157.105 -3.2265625 156 C-4.50195768 147.56277032 -6.11329898 139.22283351 -7.81347656 130.86279297 C-9.20067725 124.03876551 -10.53693034 117.20489527 -11.875 110.37109375 C-12.26041136 108.40638395 -12.64582327 106.44167427 -13.03131485 104.47698021 C-13.95211511 99.78373911 -14.87231601 95.09038129 -15.79101562 90.39672852 C-19.64090282 70.63201822 -19.64090282 70.63201822 -23.7734375 50.92503357 C-26.77193519 37.04129534 -26.97572847 26.8859771 -19.19677734 14.72119141 C-15.2278954 9.01319106 -7.68205453 0 0 0 Z " fill="#238692" transform="translate(87,9)"/>
<path d="M0 0 C1.98 0 3.96 0 6 0 C7.05439401 7.91659766 7.28693967 15.76853223 7.375 23.75 C7.43107422 25.70099609 7.43107422 25.70099609 7.48828125 27.69140625 C7.49988281 28.94308594 7.51148438 30.19476563 7.5234375 31.484375 C7.5531665 33.18158691 7.5531665 33.18158691 7.58349609 34.91308594 C6.81964476 38.95414715 5.11295238 40.41183428 2 43 C-3.45874812 45.72937406 -12.00243333 44.21736371 -17.9375 43.4375 C-21.53948212 42.96937236 -24.40547059 43.36567128 -28 44 C-30.01873978 44.12410286 -32.0404919 44.20314859 -34.0625 44.25 C-35.06410156 44.27578125 -36.06570313 44.3015625 -37.09765625 44.328125 C-40.41843953 43.95269324 -42.21374206 42.77088588 -45 41 C-47.16666667 41.66666667 -47.16666667 41.66666667 -49 43 C-53.31983106 44.43994369 -57.48096179 44.44553898 -62 44 C-63.0725 43.443125 -64.145 42.88625 -65.25 42.3125 C-66.1575 41.879375 -67.065 41.44625 -68 41 C-70.01800895 41.96314063 -72.01549844 42.96958573 -74 44 C-78.87772433 44.7173124 -83.36297849 44.82158707 -87.625 42.125 C-88.800625 41.073125 -88.800625 41.073125 -90 40 C-90 39.34 -90 38.68 -90 38 C-90.79664063 38.05800781 -91.59328125 38.11601563 -92.4140625 38.17578125 C-102.16028656 38.59076646 -102.16028656 38.59076646 -105.75 35.9375 C-108 33 -108 33 -108.5625 29.5 C-107.72894028 24.31340619 -106.28363504 22.02690803 -102.1875 18.75 C-98.9940534 16.9967352 -96.60027662 16.34288349 -93 16 C-93 14.35 -93 12.7 -93 11 C-90.69 11 -88.38 11 -86 11 C-85.97494385 11.68626465 -85.9498877 12.3725293 -85.92407227 13.07958984 C-85.80828573 16.17825817 -85.68548115 19.27660923 -85.5625 22.375 C-85.52318359 23.45523438 -85.48386719 24.53546875 -85.44335938 25.6484375 C-85.40146484 26.6796875 -85.35957031 27.7109375 -85.31640625 28.7734375 C-85.27974854 29.72653809 -85.24309082 30.67963867 -85.20532227 31.66162109 C-85.14236535 34.02132349 -85.14236535 34.02132349 -84 36 C-80.37 36 -76.74 36 -73 36 C-71.16163081 32.32326162 -70.06348187 28.95007553 -69 25 C-67.35 25.33 -65.7 25.66 -64 26 C-63.505 30.95 -63.505 30.95 -63 36 C-59.04 36 -55.08 36 -51 36 C-49.4268854 32.0672135 -48.57267372 29.10416164 -48 25 C-46.02 25.33 -44.04 25.66 -42 26 C-42.01160156 26.63808594 -42.02320313 27.27617188 -42.03515625 27.93359375 C-42.04417969 28.75988281 -42.05320312 29.58617188 -42.0625 30.4375 C-42.07410156 31.26121094 -42.08570313 32.08492187 -42.09765625 32.93359375 C-42.23267348 34.99163938 -42.23267348 34.99163938 -41 36 C-38.98035801 36.07244053 -36.95832876 36.08377188 -34.9375 36.0625 C-33.83277344 36.05347656 -32.72804688 36.04445312 -31.58984375 36.03515625 C-30.30787109 36.01775391 -30.30787109 36.01775391 -29 36 C-29.3196875 35.40832031 -29.639375 34.81664062 -29.96875 34.20703125 C-31.52943291 30.86693336 -31.49520057 28.6521042 -31 25 C-29.47172278 22.01317685 -27.76236726 19.91674463 -25 18 C-21.82619995 17.1759256 -19.18308335 17.24379788 -16 18 C-13.12970131 19.79393668 -11.50868362 20.98263276 -10 24 C-9.87885079 25.64255791 -9.82459233 27.29052478 -9.8125 28.9375 C-9.79832031 29.81277344 -9.78414062 30.68804687 -9.76953125 31.58984375 C-10 34 -10 34 -12 37 C-6.06 36.505 -6.06 36.505 0 36 C0 24.12 0 12.24 0 0 Z " fill="#0C8694" transform="translate(557,9)"/>
<path d="M0 0 C1.98 0 3.96 0 6 0 C6.97967397 7.94105492 7.21510086 15.81623358 7.25 23.8125 C7.270625 25.01326172 7.29125 26.21402344 7.3125 27.45117188 C7.32023437 29.18657227 7.32023437 29.18657227 7.328125 30.95703125 C7.3374707 31.99835205 7.34681641 33.03967285 7.35644531 34.11254883 C6.94479552 37.44719406 5.97535788 39.30581476 4 42 C-0.19850763 44.51910458 -4.24908677 44.16104791 -9 44 C-8.9175 45.2375 -8.835 46.475 -8.75 47.75 C-8.78109017 50.67247559 -8.93284113 51.87789297 -10.375 54.5 C-14.47341054 56.84194888 -18.39429636 56.6205737 -23 56 C-26.73389649 54.41110788 -28.94280942 52.49722398 -31 49 C-31.6875 46.25 -31.6875 46.25 -32 44 C-33.794375 44.0928125 -33.794375 44.0928125 -35.625 44.1875 C-38.98193348 44.22302311 -40.07598283 43.9597738 -43.1875 42.3125 C-44.115625 41.879375 -45.04375 41.44625 -46 41 C-47.67888441 41.97934924 -49.34338239 42.98343919 -51 44 C-56.08890498 44.60662443 -61.51516757 44.74876827 -66 42 C-66.495 40.515 -66.495 40.515 -67 39 C-66.34 38.01 -65.68 37.02 -65 36 C-61.7421875 35.70703125 -61.7421875 35.70703125 -57.875 35.8125 C-55.95300781 35.85310547 -55.95300781 35.85310547 -53.9921875 35.89453125 C-53.00476563 35.92933594 -52.01734375 35.96414062 -51 36 C-49.55160654 31.52759588 -50.94765746 29.17798303 -53 25 C-53.5775 24.113125 -54.155 23.22625 -54.75 22.3125 C-56 20 -56 20 -55.6875 17.6875 C-55.460625 17.130625 -55.23375 16.57375 -55 16 C-53.68 15.67 -52.36 15.34 -51 15 C-47.69601458 20.23414872 -44.84549017 25.27255293 -42.625 31.0625 C-41.12310846 34.81180014 -41.12310846 34.81180014 -37.91015625 36.9140625 C-35.44948111 37.28159259 -35.44948111 37.28159259 -32 37 C-31.96132813 36.12988281 -31.96132813 36.12988281 -31.921875 35.2421875 C-31.41158428 28.21409258 -29.24614099 23.96857995 -24.125 19.0625 C-21 17 -21 17 -17.875 16.875 C-14.17674843 18.32214192 -12.9252318 19.51977329 -11 23 C-10.28492485 29.43567632 -10.88972734 30.77945469 -14 37 C-9.38 36.67 -4.76 36.34 0 36 C0 24.12 0 12.24 0 0 Z " fill="#0B8594" transform="translate(379,9)"/>
<path d="M0 0 C2.31 0 4.62 0 7 0 C7.02505615 0.87736816 7.0501123 1.75473633 7.07592773 2.65869141 C7.17145384 5.93517191 7.27066243 9.21149898 7.37231445 12.48779297 C7.41544251 13.90181165 7.45713168 15.31587502 7.49731445 16.72998047 C7.5555575 18.7706444 7.61909141 20.81108795 7.68359375 22.8515625 C7.72025146 24.07697754 7.75690918 25.30239258 7.79467773 26.56494141 C7.98672113 29.77784342 8.4055394 32.83941587 9 36 C11.97 36.33 14.94 36.66 18 37 C18.40412109 35.90751953 18.40412109 35.90751953 18.81640625 34.79296875 C19.97295594 32.06381684 21.29495912 29.77422158 22.9375 27.3125 C23.44152344 26.54550781 23.94554687 25.77851562 24.46484375 24.98828125 C26.82814753 21.92741198 28.54913826 21.05844504 32.375 20.5625 C36 21 36 21 38.625 22.9375 C46 32.44736842 46 32.44736842 46 37 C49.63 36.67 53.26 36.34 57 36 C56.505 35.319375 56.01 34.63875 55.5 33.9375 C53.64128923 30.29752475 53.56656736 28.04537127 54 24 C55.79281261 19.84822343 57.81540699 17.72841885 62 16 C69.55895197 15.27947598 69.55895197 15.27947598 73 17 C72.505 19.475 72.505 19.475 72 22 C68.7 22.66 65.4 23.32 62 24 C61.14349347 26.80045046 61.14349347 26.80045046 61 30 C62.51890049 32.35310797 62.51890049 32.35310797 65 34 C68.05918162 34.26792073 68.05918162 34.26792073 71.25 33.75 C72.86648438 33.55664062 72.86648438 33.55664062 74.515625 33.359375 C75.33546875 33.24078125 76.1553125 33.1221875 77 33 C77.495 35.475 77.495 35.475 78 38 C67.93813455 42.58571744 57.1175774 45.12608979 46 44 C44.576875 43.4121875 44.576875 43.4121875 43.125 42.8125 C42.42375 42.544375 41.7225 42.27625 41 42 C40.4225 42.495 39.845 42.99 39.25 43.5 C37 45 37 45 34.85546875 44.8671875 C30.61904119 44.00484522 27.89892547 43.35275086 25 40 C22.50638429 41.20381448 20.31856917 42.45428722 18 44 C13.31071304 44.59713767 7.99456533 44.70220596 4 42 C1.26544911 36.75818665 0.53959464 32.51792931 0.48828125 26.66015625 C0.47033005 25.89319931 0.45237885 25.12624237 0.43388367 24.33604431 C0.3801552 21.91158374 0.34600725 19.48731568 0.3125 17.0625 C0.27929366 15.40817654 0.24480098 13.75387838 0.20898438 12.09960938 C0.12445114 8.06654607 0.05746321 4.03353612 0 0 Z " fill="#0C8694" transform="translate(644,9)"/>
<path d="M0 0 C1.98 0 3.96 0 6 0 C6.67052094 9.24361014 7.13367539 18.48166525 7.25 27.75 C7.2819043 29.0169873 7.2819043 29.0169873 7.31445312 30.30957031 C7.34094327 35.00778608 7.17095176 38.25770558 4 42 C-0.03617317 44.74030571 -4.29592531 44.43525246 -9 44 C-12.0625 43 -12.0625 43 -14 42 C-14.66 42.66 -15.32 43.32 -16 44 C-19.90721343 44.75597816 -23.58639433 44.73764514 -27.1484375 42.87890625 C-28.82841244 41.66863859 -30.42321553 40.34194423 -32 39 C-32.680625 39.825 -33.36125 40.65 -34.0625 41.5 C-37 44 -37 44 -40.5625 44.4375 C-43.60290413 44.05053947 -45.45242386 43.63044873 -48 42 C-48.185625 42.86625 -48.37125 43.7325 -48.5625 44.625 C-51.22997344 50.88776374 -56.80069268 54.46391973 -63 57 C-63.99 57 -64.98 57 -66 57 C-66.33 55.02 -66.66 53.04 -67 51 C-66.39671875 50.69707031 -65.7934375 50.39414062 -65.171875 50.08203125 C-58.52927355 46.70768502 -58.52927355 46.70768502 -54 41 C-53.46488615 37.12911147 -53.23334505 33.51867908 -55.0234375 29.97265625 C-56 28 -56 28 -56 24 C-54.35 23.34 -52.7 22.68 -51 22 C-48.60457417 26.58154261 -46.49170266 31.0276578 -45 36 C-41.8028229 36.92339574 -41.8028229 36.92339574 -38 36 C-35.91939163 33.40033923 -34.35977216 30.72192135 -32.7734375 27.796875 C-30.83476905 24.7394155 -29.00036861 23.00491921 -26 21 C-21.78800014 20.32307145 -19.8717627 20.37731236 -16.375 22.875 C-13.2639555 26.9684796 -11.1285639 31.33527486 -9 36 C-6.03 36 -3.06 36 0 36 C0 24.12 0 12.24 0 0 Z " fill="#0B8594" transform="translate(918,9)"/>
<path d="M0 0 C1.83567892 0.70859774 3.66423371 1.43598855 5.484375 2.18359375 C9.02246821 3.50700266 12.28973866 3.85736235 16.04296875 4.140625 C16.04296875 6.450625 16.04296875 8.760625 16.04296875 11.140625 C14.39296875 11.140625 12.74296875 11.140625 11.04296875 11.140625 C12.67575385 14.88729702 12.67575385 14.88729702 15.04296875 18.140625 C17.3745693 18.23971802 19.70926817 18.27033004 22.04296875 18.265625 C23.32171875 18.26820312 24.60046875 18.27078125 25.91796875 18.2734375 C28.90984119 18.49923393 28.90984119 18.49923393 30.04296875 17.140625 C29.97808124 15.57447658 29.84030245 14.01111484 29.66796875 12.453125 C29.51908203 11.10541016 29.51908203 11.10541016 29.3671875 9.73046875 C29.00669451 6.85086809 28.56872599 3.9947357 28.04296875 1.140625 C30.02296875 0.810625 32.00296875 0.480625 34.04296875 0.140625 C36.42399064 6.13569797 37.98700055 11.65827328 37.04296875 18.140625 C35.41896691 21.77529579 34.38183831 22.91471196 31.04296875 25.140625 C25.10907329 26.93877514 18.3731741 27.03033977 12.60546875 24.828125 C8.29966166 21.9925935 8.29966166 21.9925935 7.04296875 20.140625 C6.35546875 16.453125 6.35546875 16.453125 6.04296875 13.140625 C-1.37348406 16.32119863 -7.2473725 19.72130749 -10.95703125 27.140625 C-11.43316701 32.83527125 -11.43316701 32.83527125 -9.39453125 38.015625 C-5.48558035 41.42342835 -1.65903015 42.01455101 3.41796875 42.390625 C7.76695148 42.09069516 11.82637882 41.21150498 16.04296875 40.140625 C16.70296875 42.120625 17.36296875 44.100625 18.04296875 46.140625 C9.01494679 49.43066337 -0.13535049 51.07955189 -9.23828125 47.125 C-13.39136591 44.74641515 -16.14646999 41.51149536 -17.95703125 37.140625 C-18.96928782 29.29235005 -17.28011084 23.55691851 -12.83203125 17.015625 C-9.61370531 13.35441017 -5.37215692 11.1009755 -0.95703125 9.140625 C-0.29703125 9.140625 0.36296875 9.140625 1.04296875 9.140625 C1.04296875 8.480625 1.04296875 7.820625 1.04296875 7.140625 C-3.90695622 6.07037095 -8.63110128 6.09445107 -13.6640625 6.203125 C-15.95703125 6.140625 -15.95703125 6.140625 -16.95703125 5.140625 C-16.99766957 3.47445385 -16.99975225 1.80674405 -16.95703125 0.140625 C-12.04908052 -2.31335037 -5.1133501 -1.48604626 0 0 Z " fill="#0C8694" transform="translate(811.95703125,26.859375)"/>
<path d="M0 0 C1.98 0 3.96 0 6 0 C6.05534912 1.05501709 6.11069824 2.11003418 6.16772461 3.19702148 C6.37360875 7.09783743 6.58563795 10.99829894 6.79956055 14.89868164 C6.89141797 16.58934597 6.98159109 18.28010267 7.07006836 19.97094727 C7.19726743 22.39625683 7.33044877 24.82117365 7.46484375 27.24609375 C7.50343002 28.00651474 7.5420163 28.76693573 7.58177185 29.55039978 C7.48140678 33.07322867 7.48140678 33.07322867 9 36 C12.3 36 15.6 36 19 36 C19 24.12 19 12.24 19 0 C20.98 0 22.96 0 25 0 C26.07109084 6.72168528 26.22067577 13.27581677 26.24023438 20.07080078 C26.25000964 22.12702869 26.28113318 24.182284 26.3125 26.23828125 C26.32023438 28.19701172 26.32023438 28.19701172 26.328125 30.1953125 C26.34214355 31.97446045 26.34214355 31.97446045 26.35644531 33.78955078 C25.96509135 37.31441692 25.09226228 39.16927335 23 42 C18.40113603 45.26370992 12.36846473 44.60788891 7 44 C3.75 42.1875 3.75 42.1875 2 40 C2 39.01 2 38.02 2 37 C1.20335937 37.63228516 1.20335937 37.63228516 0.390625 38.27734375 C-0.66898438 39.09912109 -0.66898438 39.09912109 -1.75 39.9375 C-2.44609375 40.48277344 -3.1421875 41.02804688 -3.859375 41.58984375 C-7.37883001 43.90831685 -10.47643515 44.1388748 -14.625 44.125 C-15.40101563 44.12757812 -16.17703125 44.13015625 -16.9765625 44.1328125 C-19 44 -19 44 -21 43 C-20.505 40.03 -20.505 40.03 -20 37 C-19.08476563 36.86722656 -18.16953125 36.73445313 -17.2265625 36.59765625 C-16.03804687 36.42105469 -14.84953125 36.24445312 -13.625 36.0625 C-12.44164062 35.88847656 -11.25828125 35.71445312 -10.0390625 35.53515625 C-7.09297619 35.16537214 -7.09297619 35.16537214 -5 34 C-6.50425269 28.54443566 -10.30208544 25.14289179 -14.125 21.1875 C-14.78371094 20.49462891 -15.44242188 19.80175781 -16.12109375 19.08789062 C-17.74109805 17.38571219 -19.36743551 15.69012081 -21 14 C-20.34 12.68 -19.68 11.36 -19 10 C-16 10 -16 10 -13.1875 12.484375 C-12.11723822 13.56528615 -11.05501957 14.65420672 -10 15.75 C-9.46632813 16.28882812 -8.93265625 16.82765625 -8.3828125 17.3828125 C-5.65676414 20.16311058 -3.357313 22.856916 -1 26 C-0.67 17.42 -0.34 8.84 0 0 Z " fill="#0D8694" transform="translate(748,9)"/>
<path d="M0 0 C2.97 0 5.94 0 9 0 C10.32 7.92 11.64 15.84 13 24 C14.88617432 16.02662674 16.62414171 8.07709751 18 0 C20.97 0 23.94 0 27 0 C27 14.19 27 28.38 27 43 C25.02 43 23.04 43 21 43 C20.505 31.615 20.505 31.615 20 20 C19.0538818 26.82051379 19.0538818 26.82051379 18.11547852 33.64208984 C17.99615967 34.48980957 17.87684082 35.3375293 17.75390625 36.2109375 C17.63345947 37.08024902 17.5130127 37.94956055 17.38891602 38.84521484 C17 41 17 41 16 43 C14.02 43 12.04 43 10 43 C8.68 33.76 7.36 24.52 6 15 C5.67 24.24 5.34 33.48 5 43 C3.35 43 1.7 43 0 43 C0 28.81 0 14.62 0 0 Z " fill="#0A8593" transform="translate(303,86)"/>
<path d="M0 0 C13 0 13 0 18 3 C21.17638949 7.76458424 20.33327939 13.19916383 20.31567383 18.76904297 C20.31252127 20.8608852 20.33595219 22.95130209 20.36132812 25.04296875 C20.3636021 26.38020656 20.36430416 27.71744815 20.36328125 29.0546875 C20.36626221 30.26624512 20.36924316 31.47780273 20.37231445 32.72607422 C19.96254762 36.32933537 19.23497132 38.16514027 17 41 C13 43 13 43 0 43 C0 28.81 0 14.62 0 0 Z " fill="#0D8694" transform="translate(813,86)"/>
<path d="M0 0 C3.05201337 2.22542642 4.65000469 3.66370483 5.61450195 7.34619141 C6.29198666 12.01006649 6.18453734 16.67029477 6.1875 21.375 C6.19974609 22.39078125 6.21199219 23.4065625 6.22460938 24.453125 C6.25028508 37.63332086 6.25028508 37.63332086 2.1875 41.90625 C-1.75525776 43.87762888 -5.71704137 43.77677619 -10 43 C-13.42635526 39.9079233 -14.87576762 37.01708205 -15.16113281 32.38378906 C-15.20662469 29.00575278 -15.23527966 25.62831715 -15.25 22.25 C-15.270625 21.08210938 -15.29125 19.91421875 -15.3125 18.7109375 C-15.34110743 12.40299943 -15.27689514 7.4819087 -12 2 C-7.98401175 -0.6773255 -4.71993589 -0.81149775 0 0 Z " fill="#178B99" transform="translate(652,86)"/>
<path d="M0 0 C1.98 0 3.96 0 6 0 C6.99 8.58 7.98 17.16 9 26 C10.32 17.42 11.64 8.84 13 0 C14.98 0 16.96 0 19 0 C21.20199584 9.59441045 22.03508256 19.21298028 23 29 C23.99 19.43 24.98 9.86 26 0 C27.98 0 29.96 0 32 0 C32.10233417 5.42031245 31.78609476 10.56831574 30.94140625 15.9296875 C30.8327977 16.64609406 30.72418915 17.36250061 30.61228943 18.10061646 C30.38392637 19.59843679 30.15270084 21.09582334 29.91870117 22.59277344 C29.56032633 24.88892701 29.21212164 27.18646075 28.86523438 29.484375 C28.64121696 30.94540339 28.41662828 32.40634432 28.19140625 33.8671875 C28.08719864 34.55360321 27.98299103 35.24001892 27.87562561 35.94723511 C27.11584145 40.76831711 27.11584145 40.76831711 26 43 C24.02 43 22.04 43 20 43 C18.59043437 34.6775646 17.26987684 26.34490496 16 18 C14.68 26.25 13.36 34.5 12 43 C9.69 43 7.38 43 5 43 C4.28170064 38.00208831 3.56984036 33.00331605 2.86376953 28.00366211 C2.62299795 26.30517215 2.38051005 24.60692453 2.13623047 22.90893555 C1.78414821 20.45944897 1.4383753 18.00913923 1.09375 15.55859375 C0.9843811 14.80726669 0.87501221 14.05593964 0.7623291 13.28184509 C0.14025041 8.80616413 -0.104183 4.51893746 0 0 Z " fill="#0C8694" transform="translate(501,86)"/>
<path d="M0 0 C0.86109375 -0.04898438 1.7221875 -0.09796875 2.609375 -0.1484375 C6.45671022 0.61419995 7.80413896 2.35971351 10.25 5.375 C10.86523438 8.80078125 10.86523438 8.80078125 10.84375 12.6875 C10.84379028 13.37884033 10.84383057 14.07018066 10.84387207 14.7824707 C10.83853156 16.23821141 10.82101113 17.69395282 10.79199219 19.14941406 C10.75011808 21.3687415 10.75092832 23.58503129 10.7578125 25.8046875 C10.66864897 37.86422449 10.66864897 37.86422449 7.25 42.375 C3.55568392 44.22215804 -0.71714833 43.85060286 -4.75 43.375 C-8.09302215 41.09196048 -9.02044835 39.24275517 -9.75 35.375 C-10.02925572 30.7536067 -10.02739703 26.1289113 -10.0625 21.5 C-10.09150391 20.23285156 -10.12050781 18.96570313 -10.15039062 17.66015625 C-10.22903568 6.15377994 -10.22903568 6.15377994 -5.75 1.375 C-4.10843264 -0.26656736 -2.25784199 0.08684008 0 0 Z " fill="#0F8795" transform="translate(545.75,85.625)"/>
<path d="M0 0 C0.85207031 -0.03996094 1.70414062 -0.07992187 2.58203125 -0.12109375 C6.39068288 0.69545375 7.7572803 2.43807561 10.1875 5.4375 C10.68867036 8.1623538 10.89195211 10.25376441 10.8515625 12.96875 C10.85634613 13.68228638 10.86112976 14.39582275 10.86605835 15.13098145 C10.8694481 16.63373022 10.86031008 18.13655366 10.83935547 19.63916016 C10.81256783 21.93169475 10.83912531 24.21933534 10.87109375 26.51171875 C10.86778948 27.97657324 10.86138286 29.4414247 10.8515625 30.90625 C10.86168365 31.58659302 10.87180481 32.26693604 10.88223267 32.96789551 C10.78860221 36.79471869 10.25059606 38.35994375 7.80444336 41.36669922 C4.19186317 44.22535256 1.95222152 44.15494871 -2.5 43.9296875 C-4.8125 43.4375 -4.8125 43.4375 -7.375 41.1875 C-10.6387756 34.94375537 -10.03232884 28.46415187 -10.0625 21.5625 C-10.083125 20.39074219 -10.10375 19.21898437 -10.125 18.01171875 C-10.17385642 7.25109293 -10.17385642 7.25109293 -6.8125 2.4375 C-4.34214288 -0.03285712 -3.4164993 0.08707719 0 0 Z " fill="#108896" transform="translate(455.8125,85.5625)"/>
<path d="M0 0 C13.99124726 0 13.99124726 0 17.79296875 3.78515625 C19.28170447 6.51691403 19.36836547 8.33911506 19.3125 11.4375 C19.30863281 12.36433594 19.30476563 13.29117188 19.30078125 14.24609375 C19 17 19 17 17.92578125 19.6640625 C16.77870944 22.55836183 17.49389164 23.84303497 18.484375 26.6875 C19.66482641 31.98164571 19.13469187 37.60484216 19 43 C17.02 43 15.04 43 13 43 C12.34 37.06 11.68 31.12 11 25 C9.35 24.67 7.7 24.34 6 24 C6 30.27 6 36.54 6 43 C4.02 43 2.04 43 0 43 C0 28.81 0 14.62 0 0 Z " fill="#0E8795" transform="translate(471,86)"/>
<path d="M0 0 C11 0 11 0 16 2 C18.10091934 4.13295951 18.90814784 5.40147945 19.36328125 8.3671875 C19.26261886 13.33836105 18.76475159 17.29399577 17 22 C17.33 22.66 17.66 23.32 18 24 C18.15067214 25.4465242 18.24861036 26.8987934 18.31640625 28.3515625 C18.35830078 29.20234375 18.40019531 30.053125 18.44335938 30.9296875 C18.48267578 31.81914063 18.52199219 32.70859375 18.5625 33.625 C18.60568359 34.5221875 18.64886719 35.419375 18.69335938 36.34375 C18.79956861 38.56234283 18.90161194 40.7810488 19 43 C17.02 43 15.04 43 13 43 C11.8838344 39.28570102 11.6875805 35.60838492 11.4375 31.75 C11.35371094 30.48671875 11.26992188 29.2234375 11.18359375 27.921875 C11.12300781 26.95765625 11.06242188 25.9934375 11 25 C9.35 24.67 7.7 24.34 6 24 C6 30.27 6 36.54 6 43 C4.02 43 2.04 43 0 43 C0 28.81 0 14.62 0 0 Z " fill="#078392" transform="translate(561,86)"/>
<path d="M0 0 C13 0 13 0 16.8125 1.75 C20.09011544 6.61960009 19.78914513 11.29387369 19 17 C17.96875 19.875 17.96875 19.875 17 22 C17.33 22.33 17.66 22.66 18 23 C18.15655027 24.48638992 18.25066943 25.97949127 18.31640625 27.47265625 C18.35830078 28.37177734 18.40019531 29.27089844 18.44335938 30.19726562 C18.48267578 31.14279297 18.52199219 32.08832031 18.5625 33.0625 C18.60568359 34.01189453 18.64886719 34.96128906 18.69335938 35.93945312 C18.79979276 38.29281353 18.90181008 40.64628354 19 43 C17.02 43 15.04 43 13 43 C12.67 37.39 12.34 31.78 12 26 C10.02 25.01 8.04 24.02 6 23 C6 29.6 6 36.2 6 43 C4.02 43 2.04 43 0 43 C0 28.81 0 14.62 0 0 Z " fill="#098493" transform="translate(713,86)"/>
<path d="M0 0 C13 0 13 0 16.3125 1.75 C18.88256556 6.69975589 18.69080412 11.53173999 18 17 C17.61972656 17.886875 17.23945313 18.77375 16.84765625 19.6875 C16.56792969 20.450625 16.28820312 21.21375 16 22 C16.66 22.99 17.32 23.98 18 25 C18.22705078 26.99291992 18.22705078 26.99291992 18.1953125 29.23046875 C18.18886719 30.03291016 18.18242187 30.83535156 18.17578125 31.66210938 C18.15902344 32.49548828 18.14226562 33.32886719 18.125 34.1875 C18.11597656 35.03248047 18.10695313 35.87746094 18.09765625 36.74804688 C18.07410703 38.83215243 18.03823647 40.91611217 18 43 C16.02 43 14.04 43 12 43 C11.67 37.06 11.34 31.12 11 25 C9.35 24.67 7.7 24.34 6 24 C6 30.27 6 36.54 6 43 C4.02 43 2.04 43 0 43 C0 28.81 0 14.62 0 0 Z " fill="#098493" transform="translate(336,86)"/>
<path d="M0 0 C2.31 0 4.62 0 7 0 C8.98 7.26 10.96 14.52 13 22 C13.33 14.74 13.66 7.48 14 0 C15.98 0 17.96 0 20 0 C20 14.19 20 28.38 20 43 C17.69 43 15.38 43 13 43 C9.73935944 34.19627048 7.96911849 25.16658609 6 16 C5.67 24.91 5.34 33.82 5 43 C3.35 43 1.7 43 0 43 C0 28.81 0 14.62 0 0 Z " fill="#0B8594" transform="translate(788,86)"/>
<path d="M0 0 C1.98 0 3.96 0 6 0 C6.39702925 6.66441952 6.73025379 13.32918763 7 20 C7.03689941 20.90186035 7.07379883 21.8037207 7.11181641 22.73291016 C7.90857773 45.00545374 7.90857773 45.00545374 1.234375 53.15625 C-4.11783686 57.57276049 -10.29358346 57.42971701 -16.93359375 57.31640625 C-20.95519609 56.90143837 -23.07559869 55.77443201 -26 53 C-27.175625 51.948125 -27.175625 51.948125 -28.375 50.875 C-31.3511483 45.60950685 -30.56582445 40.05111365 -29 34.375 C-28.67 33.59125 -28.34 32.8075 -28 32 C-26.02 32.33 -24.04 32.66 -22 33 C-22.165 33.495 -22.33 33.99 -22.5 34.5 C-23.55902287 39.79511437 -23.99305505 43.41111193 -21.125 48 C-16.71066609 50.8251737 -13.10203445 50.73966891 -8 50 C-4.98049847 49.20572041 -4.98049847 49.20572041 -3 47 C-0.28106715 41.01892473 0.41728603 36.20520218 0.29296875 29.6875 C0.28660149 28.40601074 0.28660149 28.40601074 0.28010559 27.09863281 C0.26345703 24.39875318 0.22583223 21.69964989 0.1875 19 C0.17243523 17.15756295 0.15874998 15.31511407 0.14648438 13.47265625 C0.11359906 8.98147661 0.06191456 4.49086944 0 0 Z " fill="#0A8593" transform="translate(630,9)"/>
<path d="M0 0 C-16.25487517 13.23767932 -41.0319687 25.58722731 -62.1394043 24.01635742 C-64.4514725 23.75753328 -66.71589734 23.43666668 -69 23 C-50.60523107 8.01962951 -23.78467616 -4.54707044 0 0 Z " fill="#D2D3D5" transform="translate(309,157)"/>
<path d="M0 0 C2.97 0 5.94 0 9 0 C10.97229239 7.11499871 12.12937455 14.34518263 13.28710938 21.62841797 C13.62653254 23.75962267 13.97306586 25.88958882 14.3203125 28.01953125 C14.53948538 29.38274458 14.75824996 30.74602363 14.9765625 32.109375 C15.17330566 33.33624023 15.37004883 34.56310547 15.57275391 35.82714844 C16 39 16 39 16 43 C14.02 43 12.04 43 10 43 C9.34 39.04 8.68 35.08 8 31 C5.69 31 3.38 31 1 31 C1.020625 32.2375 1.04125 33.475 1.0625 34.75 C1.06766681 37.6640825 0.93015558 40.20953327 0 43 C-1.98 43 -3.96 43 -6 43 C-4.70356488 28.53451341 -2.52254127 14.29990829 0 0 Z " fill="#0E8695" transform="translate(694,86)"/>
<path d="M0 0 C2.63016161 2.1727422 4.47336894 3.94673788 6 7 C6.039992 8.99960012 6.04346799 11.00047242 6 13 C4.02 13 2.04 13 0 13 C-0.66 11.02 -1.32 9.04 -2 7 C-3.32 7 -4.64 7 -6 7 C-6 17.23 -6 27.46 -6 38 C-4.68 38 -3.36 38 -2 38 C-0.71553081 35.43106162 -0.67022856 33.23423663 -0.4375 30.375 C-0.35371094 29.37210938 -0.26992188 28.36921875 -0.18359375 27.3359375 C-0.12300781 26.56507812 -0.06242188 25.79421875 0 25 C-1.32 25 -2.64 25 -4 25 C-4 23.35 -4 21.7 -4 20 C-0.7 20 2.6 20 6 20 C6 27.92 6 35.84 6 44 C3.33333333 44 0.66666667 44 -2 44 C-2.639375 44.04640625 -3.27875 44.0928125 -3.9375 44.140625 C-6.01575398 44.25083544 -7.93570085 44.2758145 -10 44 C-13.309451 41.01081845 -13.9161799 37.58427023 -14.14526367 33.25439453 C-14.1698234 29.87782787 -14.18565483 26.50166279 -14.1875 23.125 C-14.19974609 21.95324219 -14.21199219 20.78148437 -14.22460938 19.57421875 C-14.22654297 18.43855469 -14.22847656 17.30289063 -14.23046875 16.1328125 C-14.23457764 15.10043457 -14.23868652 14.06805664 -14.24291992 13.00439453 C-13.87108759 8.40563201 -12.95827735 5.0404154 -9.8125 1.625 C-6.17497448 -0.47668141 -4.14054195 -0.66544424 0 0 Z " fill="#118896" transform="translate(859,85)"/>
<path d="M0 0 C2.97 0 5.94 0 9 0 C11.31 14.19 13.62 28.38 16 43 C13.69 43 11.38 43 9 43 C8.67 39.04 8.34 35.08 8 31 C5.69 31 3.38 31 1 31 C0.93941406 31.69867188 0.87882813 32.39734375 0.81640625 33.1171875 C0.69072266 34.48230469 0.69072266 34.48230469 0.5625 35.875 C0.48128906 36.77992187 0.40007813 37.68484375 0.31640625 38.6171875 C0 41 0 41 -1 43 C-2.98 43 -4.96 43 -7 43 C-5.0545472 28.58596332 -2.6994139 14.2918208 0 0 Z " fill="#0B8594" transform="translate(769,86)"/>
<path d="M0 0 C2.64 0 5.28 0 8 0 C9.88182082 7.10519263 11.27317534 14.27716938 12.625 21.5 C12.96917969 23.27697266 12.96917969 23.27697266 13.3203125 25.08984375 C14.45758974 31.16209188 15.29056951 36.82157468 15 43 C13.02 43 11.04 43 9 43 C7.6728739 39.0186217 7.93084087 35.14954773 8 31 C5.36 31 2.72 31 0 31 C0.020625 32.2375 0.04125 33.475 0.0625 34.75 C0.06766681 37.6640825 -0.06984442 40.20953327 -1 43 C-2.98 43 -4.96 43 -7 43 C-6.35364255 34.97359105 -5.13747912 27.05254403 -3.84326172 19.11083984 C-3.49625476 16.97696918 -3.15608409 14.84207951 -2.81640625 12.70703125 C-2.59675884 11.34628878 -2.37672139 9.98560921 -2.15625 8.625 C-1.95837891 7.40039062 -1.76050781 6.17578125 -1.55664062 4.9140625 C-1 2 -1 2 0 0 Z " fill="#0B8594" transform="translate(265,86)"/>
<path d="M0 0 C1.98 0 3.96 0 6 0 C6 5.61 6 11.22 6 17 C8.64 17 11.28 17 14 17 C14 11.39 14 5.78 14 0 C15.98 0 17.96 0 20 0 C20 14.19 20 28.38 20 43 C18.02 43 16.04 43 14 43 C14 36.4 14 29.8 14 23 C11.36 23 8.72 23 6 23 C6 29.6 6 36.2 6 43 C4.02 43 2.04 43 0 43 C0 28.81 0 14.62 0 0 Z " fill="#0B8594" transform="translate(394,86)"/>
<path d="M0 0 C1.98 0 3.96 0 6 0 C6.33 5.28 6.66 10.56 7 16 C9.31 10.72 11.62 5.44 14 0 C16.31 0 18.62 0 21 0 C20.20722656 1.46759766 20.20722656 1.46759766 19.3984375 2.96484375 C14.88773706 10.80207824 14.88773706 10.80207824 14.25 19.4375 C14.79766115 20.97154011 15.38862174 22.49022239 16 24 C16.67169382 26.05180639 17.30929237 28.11259599 17.94433594 30.17602539 C18.39214422 31.62272884 18.85085599 33.06610982 19.32128906 34.50561523 C20.27956507 37.45649125 21 39.87588697 21 43 C19.02 43 17.04 43 15 43 C13.02 37.06 11.04 31.12 9 25 C6.59880941 28.60178588 6.56228678 31.50866369 6.375 35.6875 C6.33632813 36.38939453 6.29765625 37.09128906 6.2578125 37.81445312 C6.1637666 39.54254655 6.0808032 41.27123675 6 43 C4.02 43 2.04 43 0 43 C0 28.81 0 14.62 0 0 Z " fill="#0A8593" transform="translate(584,86)"/>
<path d="M0 0 C1.98 0 3.96 0 6 0 C6.33 4.95 6.66 9.9 7 15 C7.42152344 14.00097656 7.84304688 13.00195312 8.27734375 11.97265625 C8.83060217 10.66921692 9.38399451 9.36583443 9.9375 8.0625 C10.21529297 7.40314453 10.49308594 6.74378906 10.77929688 6.06445312 C12.88671875 1.11328125 12.88671875 1.11328125 14 0 C15.99958364 -0.04080783 18.00045254 -0.04254356 20 0 C18.63144963 4.4477887 16.8510879 8.4447324 14.70703125 12.55859375 C12.81923747 19.07721869 16.20487216 26.63190943 18.0625 32.9375 C18.34416016 33.90751953 18.62582031 34.87753906 18.91601562 35.87695312 C19.60646466 38.25256591 20.30122001 40.62682705 21 43 C18.69 43 16.38 43 14 43 C13.65066406 41.78441406 13.30132812 40.56882813 12.94140625 39.31640625 C12.4819414 37.73172137 12.0222967 36.14708863 11.5625 34.5625 C11.33240234 33.76005859 11.10230469 32.95761719 10.86523438 32.13085938 C10.01294138 28.25946753 10.01294138 28.25946753 8 25 C6.414131 28.171738 6.62133555 31.63513822 6.4375 35.125 C6.39431641 35.87910156 6.35113281 36.63320312 6.30664062 37.41015625 C6.2005168 39.27321888 6.09974999 41.13658524 6 43 C4.02 43 2.04 43 0 43 C0 28.81 0 14.62 0 0 Z " fill="#098493" transform="translate(371,86)"/>
<path d="M0 0 C2.97982981 0.93651794 3.86006761 1.80305812 5.6875 4.375 C8.7082371 10.4164742 8.9383926 16.76670772 6.875 23.1875 C4.82925389 28.12249891 1.50545652 30.32969565 -2.875 33.25 C-6.18970023 34.4198942 -9.50671314 34.65067131 -13 35 C-13.66 33.02 -14.32 31.04 -15 29 C-14.15695312 28.73445313 -13.31390625 28.46890625 -12.4453125 28.1953125 C-11.34960938 27.84210937 -10.25390625 27.48890625 -9.125 27.125 C-8.03445313 26.77695312 -6.94390625 26.42890625 -5.8203125 26.0703125 C-2.91477277 25.18824769 -2.91477277 25.18824769 -1 23 C-1.61488281 22.89042969 -2.22976563 22.78085937 -2.86328125 22.66796875 C-4.07564453 22.43013672 -4.07564453 22.43013672 -5.3125 22.1875 C-6.11300781 22.03667969 -6.91351563 21.88585937 -7.73828125 21.73046875 C-10.33472048 20.89189511 -11.41568138 20.2160406 -13 18 C-13.94900776 13.03267108 -13.50497071 8.97511585 -11.1875 4.5 C-7.58749554 0.38570919 -5.35660061 -0.43727352 0 0 Z " fill="#0B8594" transform="translate(421,31)"/>
<path d="M0 0 C1.98 0 3.96 0 6 0 C6.86595404 3.78591952 7.17238985 7.37460518 7.28125 11.25390625 C7.31863281 12.43791016 7.35601562 13.62191406 7.39453125 14.84179688 C7.46495439 17.32616874 7.53526654 19.81054376 7.60546875 22.29492188 C7.64285156 23.47763672 7.68023437 24.66035156 7.71875 25.87890625 C7.74904297 26.9572876 7.77933594 28.03566895 7.81054688 29.14672852 C7.92993717 32.22331192 7.92993717 32.22331192 9 36 C13.29 36 17.58 36 22 36 C22.18059336 30.13071596 21.89091945 25.55457588 20 20 C22.64738916 18.5393715 23.89448334 18 27 18 C29.27030362 24.24333495 29.76996934 30.38953151 29 37 C26.91235306 40.72794097 24.9016226 42.41881611 21 44 C14.63757004 44.68232188 8.33669866 44.93230427 3 41 C0.32518579 37.23734269 0.6509003 32.95110622 0.5859375 28.515625 C0.56657135 27.70003113 0.5472052 26.88443726 0.5272522 26.04412842 C0.46760425 23.44619108 0.42113058 20.84820907 0.375 18.25 C0.33680658 16.48565806 0.29775405 14.72133449 0.2578125 12.95703125 C0.16191495 8.63817054 0.07782953 4.31922256 0 0 Z " fill="#0E8795" transform="translate(262,9)"/>
<path d="M0 0 C2.3942344 2.3942344 2.57054563 3.71306904 3.28588867 6.98974609 C3.51762283 8.03820709 3.74935699 9.08666809 3.9881134 10.16690063 C4.23309067 11.3158078 4.47806793 12.46471497 4.73046875 13.6484375 C5.1214399 15.44684586 5.1214399 15.44684586 5.52030945 17.28158569 C8.33839599 30.35869872 10.95589112 43.47648165 13.5246582 56.60449219 C14.18984789 60.0038094 14.86155531 63.40180389 15.53492451 66.79950905 C16.18959814 70.10783039 16.83867382 73.41724263 17.48828125 76.7265625 C17.84603386 78.53128525 17.84603386 78.53128525 18.21101379 80.37246704 C21.68396624 98.19967184 21.68396624 98.19967184 20 104 C17.66678587 100.50017881 16.78195216 97.07974233 15.75 93.0625 C15.53601563 92.24201172 15.32203125 91.42152344 15.1015625 90.57617188 C12.88790643 81.89329676 11.07310484 73.12793514 9.23803711 64.35888672 C7.61004331 56.64545944 5.77417392 49.03118579 3.69458008 41.4284668 C1.77428536 34.34891174 0.3262449 27.21347838 -1 20 C-1.66 20.66 -2.32 21.32 -3 22 C-2.55761615 14.46783285 -1.86094772 7.3197277 0 0 Z " fill="#EEF2F3" transform="translate(59,44)"/>
<path d="M0 0 C2.4375 1.5625 2.4375 1.5625 4 4 C4.32168155 6.75802374 4.1862691 9.20596357 4 12 C2.02 12 0.04 12 -2 12 C-2.33 10.02 -2.66 8.04 -3 6 C-3.99 6 -4.98 6 -6 6 C-6.4322979 9.08012251 -6.69401198 11.02566293 -6 14 C-3.63109225 16.70574545 -0.81353926 18.77469577 2 21 C5.6049505 25.05556931 5.43749323 29.18150113 5.296875 34.3984375 C4.93368968 37.58108777 4.10085433 39.57593731 2 42 C-1.72070085 43.86035042 -5.94774756 43.56208663 -10 43 C-12.625 41 -12.625 41 -14 38 C-14.29601533 35.23889146 -14.18937161 32.79323121 -14 30 C-12.02 30 -10.04 30 -8 30 C-7.67 32.31 -7.34 34.62 -7 37 C-5.35 37.33 -3.7 37.66 -2 38 C-1.3961109 33.85904618 -1.08843263 30.41631955 -3.41796875 26.796875 C-5.96206249 23.95443338 -8.63522399 21.33671632 -11.4375 18.75 C-14.00690808 14.22784178 -13.94643818 9.05926882 -13 4 C-8.86145241 -1.01205251 -6.31061708 -1.41444866 0 0 Z " fill="#0E8695" transform="translate(621,86)"/>
<path d="M0 0 C3.76668299 5.65002448 4.36215976 13.3000445 4 20 C3.34 19.01 2.68 18.02 2 17 C1.89171875 18.24394531 1.7834375 19.48789062 1.671875 20.76953125 C1.02814945 26.53717716 -0.34204583 32.06578089 -1.75 37.6875 C-2.29666754 39.91639848 -2.8422201 42.14557069 -3.38671875 44.375 C-3.65919434 45.48746094 -3.93166992 46.59992188 -4.21240234 47.74609375 C-5.37508322 52.54963085 -6.47535635 57.36638727 -7.5625 62.1875 C-7.86015259 63.50584839 -7.86015259 63.50584839 -8.16381836 64.85083008 C-8.56601086 66.6343458 -8.96778292 68.41795639 -9.36914062 70.20166016 C-10.50973728 75.26107148 -11.66197246 80.31783961 -12.8125 85.375 C-13.23572414 87.23696847 -13.65890581 89.0989466 -14.08203125 90.9609375 C-14.38802083 92.30729167 -14.69401042 93.65364583 -15 95 C-15.66 95 -16.32 95 -17 95 C-17 93.68 -17 92.36 -17 91 C-17.66 92.32 -18.32 93.64 -19 95 C-18.38542908 88.87863025 -17.50395472 82.90820849 -16.3125 76.875 C-16.14097412 75.99175049 -15.96944824 75.10850098 -15.79272461 74.19848633 C-15.40935972 72.22500366 -15.02460086 70.25179143 -14.63867188 68.27880859 C-13.94440983 64.71461164 -13.26058997 61.14850536 -12.578125 57.58203125 C-10.21849086 45.27153113 -7.83169486 32.96650883 -5.3125 20.6875 C-5.12244385 19.74672607 -4.9323877 18.80595215 -4.73657227 17.83666992 C-3.47852874 11.77976817 -1.8710432 5.89597094 0 0 Z " fill="#ECF1F2" transform="translate(173,44)"/>
<path d="M0 0 C3.72908656 0.04801399 4.80007759 0.07059668 7.8125 2.4375 C9.46374851 5.96516728 9.48957788 8.52350705 9.1875 12.375 C7.2075 12.375 5.2275 12.375 3.1875 12.375 C2.8575 10.395 2.5275 8.415 2.1875 6.375 C0.8675 6.375 -0.4525 6.375 -1.8125 6.375 C-2.23081404 9.66499282 -2.23081404 9.66499282 -1.8125 13.375 C0.23341271 15.78195613 2.41940634 17.74361622 4.85546875 19.74609375 C9.00378899 23.69734415 9.65222214 26.83998683 9.8125 32.5625 C9.78713601 36.46432763 9.75645253 38.58593235 7.4609375 41.76953125 C3.58164156 44.50903405 -0.25722453 44.09385576 -4.8125 43.375 C-7.4375 41.9375 -7.4375 41.9375 -8.8125 39.375 C-9.11516213 36.3431604 -9.04593035 33.4095946 -8.8125 30.375 C-7.1625 30.375 -5.5125 30.375 -3.8125 30.375 C-3.1525 32.685 -2.4925 34.995 -1.8125 37.375 C0.6625 36.88 0.6625 36.88 3.1875 36.375 C3.59437132 33.05221753 3.85956571 30.44532686 2.02734375 27.52734375 C0.48066697 25.72750248 -1.12075641 24.03894499 -2.8125 22.375 C-8.9582976 16.2292024 -8.9582976 16.2292024 -9.0625 11.0625 C-9.00790311 4.28156636 -6.84715447 0.26065303 0 0 Z " fill="#098493" transform="translate(929.8125,85.625)"/>
<path d="M0 0 C0.66 0 1.32 0 2 0 C2.13277344 0.85464844 2.26554687 1.70929687 2.40234375 2.58984375 C2.57894531 3.69457031 2.75554687 4.79929687 2.9375 5.9375 C3.19853516 7.59072266 3.19853516 7.59072266 3.46484375 9.27734375 C3.71845136 11.90426929 3.71845136 11.90426929 5 13 C5.30829774 14.3461317 5.56965731 15.70303485 5.8125 17.0625 C6.66947733 21.550522 7.73208866 25.95126082 8.875 30.375 C10.43209379 36.4454931 11.74481311 42.53552464 12.9375 48.6875 C14.3656759 56.01226786 15.92370363 63.296063 17.625 70.5625 C17.83116943 71.46121826 18.03733887 72.35993652 18.24975586 73.28588867 C18.54765015 74.53849487 18.54765015 74.53849487 18.8515625 75.81640625 C19.02510254 76.55318604 19.19864258 77.28996582 19.37744141 78.04907227 C19.99336066 80.28849757 19.99336066 80.28849757 22 83 C22.125 85.6875 22.125 85.6875 22 88 C22.66 88 23.32 88 24 88 C23.71640113 89.4391134 23.42278601 90.87625518 23.125 92.3125 C22.96257812 93.11300781 22.80015625 93.91351563 22.6328125 94.73828125 C22 97 22 97 20 100 C13.8090012 78.42371056 8.98679425 56.58047831 4.20996094 34.65600586 C4.02256348 33.79696152 3.83516602 32.93791718 3.64208984 32.05284119 C3.2746339 30.36615108 2.90840011 28.67919421 2.54345703 26.99195862 C1.74717059 23.32776805 0.93301797 19.67328329 0.02441406 16.03515625 C-0.25950195 14.88917969 -0.54341797 13.74320313 -0.8359375 12.5625 C-1.08649902 11.59441406 -1.33706055 10.62632813 -1.59521484 9.62890625 C-2.15299238 6.00637999 -1.63132109 3.26264219 0 0 Z " fill="#EBF1F3" transform="translate(96,27)"/>
<path d="M0 0 C5.28 0 10.56 0 16 0 C16 1.65 16 3.3 16 5 C12.7 5 9.4 5 6 5 C6 9.29 6 13.58 6 18 C9.3 18 12.6 18 16 18 C16 19.65 16 21.3 16 23 C12.7 23 9.4 23 6 23 C6 29.6 6 36.2 6 43 C4.02 43 2.04 43 0 43 C0 28.81 0 14.62 0 0 Z " fill="#088492" transform="translate(662,86)"/>
<path d="M0 0 C5.28 0 10.56 0 16 0 C16 1.65 16 3.3 16 5 C12.7 5 9.4 5 6 5 C6 9.29 6 13.58 6 18 C8.97 18 11.94 18 15 18 C15 19.65 15 21.3 15 23 C12.03 23 9.06 23 6 23 C6 29.6 6 36.2 6 43 C4.02 43 2.04 43 0 43 C0 28.81 0 14.62 0 0 Z " fill="#00808F" transform="translate(882,86)"/>
<path d="M0 0 C5.28 0 10.56 0 16 0 C16 1.65 16 3.3 16 5 C12.7 5 9.4 5 6 5 C6 9.29 6 13.58 6 18 C8.97 18 11.94 18 15 18 C15 19.65 15 21.3 15 23 C12.03 23 9.06 23 6 23 C6 29.6 6 36.2 6 43 C4.02 43 2.04 43 0 43 C0 28.81 0 14.62 0 0 Z " fill="#058291" transform="translate(428,86)"/>
<path d="M0 0 C6.6 0 13.2 0 20 0 C20 1.65 20 3.3 20 5 C17.69 5 15.38 5 13 5 C13 17.54 13 30.08 13 43 C11.02 43 9.04 43 7 43 C7 30.46 7 17.92 7 5 C4.69 5 2.38 5 0 5 C0 3.35 0 1.7 0 0 Z " fill="#088492" transform="translate(734,86)"/>
<path d="M0 0 C1.98 0 3.96 0 6 0 C6 12.54 6 25.08 6 38 C9.3 38 12.6 38 16 38 C16 39.65 16 41.3 16 43 C10.72 43 5.44 43 0 43 C0 28.81 0 14.62 0 0 Z " fill="#078392" transform="translate(284,86)"/>
<path d="M0 0 C1.32 0 2.64 0 4 0 C2.6667173 8.45526628 1.05957757 16.82191191 -0.75 25.1875 C-1.0073291 26.38407227 -1.2646582 27.58064453 -1.52978516 28.81347656 C-4.15823863 40.92251175 -7.0382005 52.96868158 -10 65 C-10.66 64.67 -11.32 64.34 -12 64 C-12.66 65.65 -13.32 67.3 -14 69 C-14.33 69 -14.66 69 -15 69 C-14.41664312 63.10197589 -13.57485462 57.4080351 -12.29296875 51.625 C-12.12630203 50.85679932 -11.95963531 50.08859863 -11.78791809 49.29711914 C-11.43617804 47.67987457 -11.08228392 46.06309711 -10.72631836 44.44677734 C-10.19509943 42.03450907 -9.67016523 39.62094593 -9.14648438 37.20703125 C-7.43710343 29.35545602 -5.68122973 21.51467247 -3.86328125 13.6875 C-3.62655952 12.65677368 -3.62655952 12.65677368 -3.38505554 11.60522461 C-2.45799125 7.65481305 -1.3426797 3.82880754 0 0 Z " fill="#F0F5F6" transform="translate(133,40)"/>
<path d="M0 0 C6.27 0 12.54 0 19 0 C19 1.65 19 3.3 19 5 C17.02 5.33 15.04 5.66 13 6 C12.67 18.21 12.34 30.42 12 43 C10.35 43 8.7 43 7 43 C6.67 30.79 6.34 18.58 6 6 C3.03 5.505 3.03 5.505 0 5 C0 3.35 0 1.7 0 0 Z " fill="#00808F" transform="translate(900,86)"/>
<path d="M0 0 C1.98 0 3.96 0 6 0 C7.14315747 2.28631494 7.12112732 3.54347406 7.11352539 6.08251953 C7.11341209 7.34360031 7.11341209 7.34360031 7.11329651 8.63015747 C7.10555458 9.99272171 7.10555458 9.99272171 7.09765625 11.3828125 C7.0962413 12.31221649 7.09482635 13.24162048 7.09336853 14.19918823 C7.08776053 17.17449124 7.07520668 20.14971964 7.0625 23.125 C7.05748603 25.13932183 7.05292295 27.15364484 7.04882812 29.16796875 C7.0377885 34.11200802 7.02051849 39.05599135 7 44 C5.02 44 3.04 44 1 44 C0.39028708 29.32959363 -0.1864066 14.68469801 0 0 Z " fill="#128997" transform="translate(932,9)"/>
<path d="M0 0 C1.98 0 3.96 0 6 0 C7.19388403 31.526794 7.19388403 31.526794 7 44 C5.00045254 44.04254356 2.99958364 44.04080783 1 44 C0 43 0 43 -0.12025452 41.24729919 C-0.11803391 40.48562943 -0.11581329 39.72395966 -0.11352539 38.93920898 C-0.11344986 38.07839218 -0.11337433 37.21757538 -0.11329651 36.33067322 C-0.10813522 35.39526199 -0.10297394 34.45985077 -0.09765625 33.49609375 C-0.0962413 32.54307877 -0.09482635 31.59006378 -0.09336853 30.60816956 C-0.08775152 27.55124835 -0.07519616 24.49439923 -0.0625 21.4375 C-0.05748719 19.37044376 -0.05292391 17.30338638 -0.04882812 15.23632812 C-0.03777656 10.15752412 -0.02050055 5.0787743 0 0 Z " fill="#128896" transform="translate(394,9)"/>
<path d="M0 0 C1.98 0 3.96 0 6 0 C7.02565369 14.34083646 7.11352035 28.62657682 7 43 C5.02 43 3.04 43 1 43 C-0.14236247 33.95105002 -0.1143406 24.97547064 -0.0625 15.875 C-0.0574735 14.33073062 -0.05291264 12.78645966 -0.04882812 11.2421875 C-0.03791697 7.49475813 -0.02071614 3.74738951 0 0 Z " fill="#0E8695" transform="translate(572,9)"/>
<path d="M0 0 C1.98 0 3.96 0 6 0 C7.02565369 14.34083646 7.11352035 28.62657682 7 43 C5.02 43 3.04 43 1 43 C-0.14236247 33.95105002 -0.1143406 24.97547064 -0.0625 15.875 C-0.0574735 14.33073062 -0.05291264 12.78645966 -0.04882812 11.2421875 C-0.03791697 7.49475813 -0.02071614 3.74738951 0 0 Z " fill="#0E8695" transform="translate(299,9)"/>
<path d="M0 0 C1.98 0 3.96 0 6 0 C6 14.19 6 28.38 6 43 C4.02 43 2.04 43 0 43 C0 28.81 0 14.62 0 0 Z " fill="#0A8593" transform="translate(870,86)"/>
<path d="M0 0 C1.98 0 3.96 0 6 0 C6 14.19 6 28.38 6 43 C4.02 43 2.04 43 0 43 C0 28.81 0 14.62 0 0 Z " fill="#00808F" transform="translate(359,86)"/>
<path d="M0 0 C6 1 6 1 8 3 C8.46024049 7.27348637 8.32398498 11.5796165 8.3125 15.875 C8.32861328 17.07253906 8.34472656 18.27007812 8.36132812 19.50390625 C8.36197266 20.65503906 8.36261719 21.80617188 8.36328125 22.9921875 C8.36775269 24.57555908 8.36775269 24.57555908 8.37231445 26.19091797 C7.9452696 29.41293637 7.40705701 30.81522885 5 33 C3.35 33 1.7 33 0 33 C0 22.11 0 11.22 0 0 Z " fill="#EAF4F5" transform="translate(819,91)"/>
<path d="M0 0 C1.98 0 3.96 0 6 0 C6 0.66 6 1.32 6 2 C4.68 2 3.36 2 2 2 C1.67 41.93 1.34 81.86 1 123 C0.67 123 0.34 123 0 123 C-0.01030746 122.35251801 -0.02061493 121.70503601 -0.03123474 121.03793335 C-0.66072626 78.50987506 -0.66072626 78.50987506 -2 36 C-2.66 37.32 -3.32 38.64 -4 40 C-5.16061002 36.51194683 -4.85432599 33.87388434 -4.2578125 30.2734375 C-4.07863281 29.15839844 -3.89945313 28.04335938 -3.71484375 26.89453125 C-3.52019531 25.73308594 -3.32554687 24.57164063 -3.125 23.375 C-1.84727244 15.59407974 -0.65933023 7.86055738 0 0 Z " fill="#548F9B" transform="translate(141,7)"/>
<path d="M0 0 C4.70588235 0.70588235 4.70588235 0.70588235 6 2 C6.21789186 6.11577589 6.18579188 10.23464923 6.18530273 14.35571289 C6.18748734 16.42550264 6.20563491 18.49475793 6.22460938 20.56445312 C6.22654297 21.86189453 6.22847656 23.15933594 6.23046875 24.49609375 C6.23457764 25.69419678 6.23868652 26.8922998 6.24291992 28.12670898 C6 31 6 31 4 33 C1.375 32.625 1.375 32.625 -1 32 C-1.02465504 27.60343827 -1.04283842 23.2069128 -1.05493164 18.81030273 C-1.05997121 17.31355082 -1.06680287 15.81680384 -1.07543945 14.32006836 C-1.08752159 12.17300193 -1.09323191 10.02600038 -1.09765625 7.87890625 C-1.10289307 6.5854126 -1.10812988 5.29191895 -1.11352539 3.95922852 C-1 1 -1 1 0 0 Z " fill="#FBFDFD" transform="translate(544,91)"/>
<path d="M0 0 C4.70588235 0.70588235 4.70588235 0.70588235 6 2 C6.21789186 6.11577589 6.18579188 10.23464923 6.18530273 14.35571289 C6.18748734 16.42550264 6.20563491 18.49475793 6.22460938 20.56445312 C6.22654297 21.86189453 6.22847656 23.15933594 6.23046875 24.49609375 C6.23457764 25.69419678 6.23868652 26.8922998 6.24291992 28.12670898 C6 31 6 31 4 33 C1.375 32.625 1.375 32.625 -1 32 C-1.02465504 27.60343827 -1.04283842 23.2069128 -1.05493164 18.81030273 C-1.05997121 17.31355082 -1.06680287 15.81680384 -1.07543945 14.32006836 C-1.08752159 12.17300193 -1.09323191 10.02600038 -1.09765625 7.87890625 C-1.10289307 6.5854126 -1.10812988 5.29191895 -1.11352539 3.95922852 C-1 1 -1 1 0 0 Z " fill="#FBFDFD" transform="translate(454,91)"/>
<path d="M0 0 C2.33716009 2.33716009 1.17162619 8.18832888 1.18554688 11.29882812 C1.18546631 11.9776001 1.18538574 12.65637207 1.18530273 13.35571289 C1.18748734 15.42550264 1.20563491 17.49475793 1.22460938 19.56445312 C1.22654297 20.86189453 1.22847656 22.15933594 1.23046875 23.49609375 C1.23457764 24.69419678 1.23868652 25.8922998 1.24291992 27.12670898 C1 30 1 30 -1 32 C-2.32 32 -3.64 32 -5 32 C-6.46098845 29.0780231 -6.11134901 26.50106525 -6.09765625 23.2421875 C-6.0962413 22.57913605 -6.09482635 21.91608459 -6.09336853 21.23294067 C-6.08776754 19.11358137 -6.075215 16.99432741 -6.0625 14.875 C-6.05748512 13.43880361 -6.05292219 12.00260556 -6.04882812 10.56640625 C-6.03779782 7.04423655 -6.02053259 3.52212855 -6 0 C-3.49749232 -1.25125384 -2.59701335 -0.83774624 0 0 Z " fill="#FCFDFE" transform="translate(650,92)"/>
<path d="M0 0 C0.33 0 0.66 0 1 0 C1 23.76 1 47.52 1 72 C0.67 72 0.34 72 0 72 C-1.32 62.76 -2.64 53.52 -4 44 C-3.01 44 -2.02 44 -1 44 C-1.00523682 42.77369873 -1.01047363 41.54739746 -1.01586914 40.28393555 C-1.03395561 35.7385328 -1.0454454 31.19313324 -1.05493164 26.64770508 C-1.0599635 24.67960068 -1.06678958 22.71150003 -1.07543945 20.7434082 C-1.08755517 17.91616899 -1.09323976 15.08897916 -1.09765625 12.26171875 C-1.10281754 11.38037766 -1.10797882 10.49903656 -1.11329651 9.59098816 C-1.11337204 8.77036392 -1.11344757 7.94973969 -1.11352539 7.10424805 C-1.115746 6.38254929 -1.11796661 5.66085052 -1.12025452 4.9172821 C-1 3 -1 3 0 0 Z " fill="#34596B" transform="translate(86,108)"/>
<path d="M0 0 C2.4375 0.0625 2.4375 0.0625 5 1 C6.875 3.25 6.875 3.25 8 6 C7.6875 8.8125 7.6875 8.8125 7 11 C0.64 10.4 0.64 10.4 -2 8.75 C-3 7 -3 7 -2.8125 4.4375 C-2 2 -2 2 0 0 Z " fill="#F1F8F9" transform="translate(674,36)"/>
<path d="M0 0 C1.65 0 3.3 0 5 0 C7.50640447 3.75960671 7.76453521 6.57859155 7 11 C5.1875 13 5.1875 13 3 14 C2.01 14 1.02 14 0 14 C0 9.38 0 4.76 0 0 Z " fill="#E9F4F5" transform="translate(719,91)"/>
<path d="M0 0 C1.65 0 3.3 0 5 0 C7.50640447 3.75960671 7.76453521 6.57859155 7 11 C5.1875 13 5.1875 13 3 14 C2.01 14 1.02 14 0 14 C0 9.38 0 4.76 0 0 Z " fill="#E5F2F4" transform="translate(477,91)"/>
<path d="M0 0 C2.375 0.25 2.375 0.25 5 1 C7.42363044 4.11609628 7.17392151 7.17372685 7 11 C4.3125 11.375 4.3125 11.375 1 11 C-1.06398076 9.176017 -2.39041053 7.27236161 -4 5 C-2.68 3.35 -1.36 1.7 0 0 Z " fill="#F4F9FA" transform="translate(893,36)"/>
<path d="M0 0 C2.97 0.495 2.97 0.495 6 1 C7.54586876 4.09173752 7.29359521 6.59429552 7 10 C5.1875 12.4375 5.1875 12.4375 3 14 C2.01 14 1.02 14 0 14 C0 9.38 0 4.76 0 0 Z " fill="#F1F8F9" transform="translate(567,91)"/>
<path d="M0 0 C3.875 1.875 3.875 1.875 5 3 C5.45977011 8.28735632 5.45977011 8.28735632 3.75 10.9375 C2 12 2 12 -0.0625 11.875 C-2 11 -2 11 -4 8 C-3.8125 4.9375 -3.8125 4.9375 -3 2 C-2.01 1.34 -1.02 0.68 0 0 Z " fill="#F1F8F9" transform="translate(536,32)"/>
<path d="M0 0 C0 3.3 0 6.6 0 10 C-6.0546875 10.1953125 -6.0546875 10.1953125 -8 10 C-8.66 9.34 -9.32 8.68 -10 8 C-9.89575199 4.87255956 -8.95121349 3.95253204 -6.6875 1.75 C-4 0 -4 0 0 0 Z " fill="#F4F9FA" transform="translate(465,31)"/>
<path d="M0 0 C1.43655854 -0.08131463 2.8744483 -0.13933559 4.3125 -0.1875 C5.51326172 -0.23970703 5.51326172 -0.23970703 6.73828125 -0.29296875 C9 0 9 0 10.8125 1.34375 C12 3 12 3 11.6875 5.6875 C11.460625 6.450625 11.23375 7.21375 11 8 C7.75 8.3125 7.75 8.3125 4 8 C1.5625 5.6875 1.5625 5.6875 0 3 C0 2.01 0 1.02 0 0 Z " fill="#F0F7F8" transform="translate(353,51)"/>
<path d="M0 0 C1.98 0 3.96 0 6 0 C6 0.66 6 1.32 6 2 C4.68 2 3.36 2 2 2 C1.67 15.53 1.34 29.06 1 43 C0.67 43 0.34 43 0 43 C-0.33 37.39 -0.66 31.78 -1 26 C-1.66 26.99 -2.32 27.98 -3 29 C-2.86722656 27.74445312 -2.73445312 26.48890625 -2.59765625 25.1953125 C-1.7109969 16.79886636 -0.82648809 8.40262891 0 0 Z " fill="#5ABABE" transform="translate(141,7)"/>
<path d="M0 0 C1.32 0.33 2.64 0.66 4 1 C3.63333333 8.33333333 3.63333333 8.33333333 0.625 11.5 C-2 13 -2 13 -5 13 C-4.54996653 7.37458159 -3.31558515 4.38512875 0 0 Z " fill="#ECF5F7" transform="translate(358,33)"/>
<path d="M0 0 C5 1 5 1 6 2 C6.09823937 3.66429051 6.12973631 5.33281931 6.125 7 C6.12757813 7.9075 6.13015625 8.815 6.1328125 9.75 C6 12 6 12 5 13 C3.35 13 1.7 13 0 13 C0 8.71 0 4.42 0 0 Z " fill="#F9FCFC" transform="translate(342,91)"/>
<path d="M0 0 C0.33 0 0.66 0 1 0 C1.53590819 2.66440231 2.05389262 5.33036648 2.5625 8 C2.71396484 8.74378906 2.86542969 9.48757812 3.02148438 10.25390625 C3.99910316 15.48302996 3.90028487 19.75330671 3 25 C0.67874831 21.51812247 -0.15122685 18.12828961 -1.125 14.125 C-1.30675781 13.41730469 -1.48851563 12.70960938 -1.67578125 11.98046875 C-2.59922489 8.25197827 -3.22613309 4.8442625 -3 1 C-2.67 1.99 -2.34 2.98 -2 4 C-1.34 4 -0.68 4 0 4 C0 2.68 0 1.36 0 0 Z " fill="#E2E5E8" transform="translate(76,123)"/>
<path d="M0 0 C3.16115776 1.36983503 3.9927092 1.9890638 6 5 C5.625 7.6875 5.625 7.6875 5 10 C2.66705225 10.04241723 0.33297433 10.04092937 -2 10 C-3 9 -3 9 -3.25 6.125 C-3 3 -3 3 -1.5 1.125 C-1.005 0.75375 -0.51 0.3825 0 0 Z " fill="#E9F4F5" transform="translate(417,37)"/>
<path d="M0 0 C0.33 0 0.66 0 1 0 C1 13.53 1 27.06 1 41 C0.67 41 0.34 41 0 41 C-0.33 31.1 -0.66 21.2 -1 11 C-1.66 12.32 -2.32 13.64 -3 15 C-4.2288865 11.48538462 -3.75329849 9.31643613 -2.625 5.8125 C-2.34914062 4.93207031 -2.07328125 4.05164062 -1.7890625 3.14453125 C-1 1 -1 1 0 0 Z " fill="#20959F" transform="translate(140,32)"/>
<path d="M0 0 C0.33 0 0.66 0 1 0 C1.66 5.61 2.32 11.22 3 17 C1.35 17 -0.3 17 -2 17 C-1.85848172 14.9163691 -1.71162064 12.83310062 -1.5625 10.75 C-1.48128906 9.58984375 -1.40007813 8.4296875 -1.31640625 7.234375 C-1.06752213 4.69022624 -0.71885058 2.44046752 0 0 Z " fill="#E2F0F2" transform="translate(773,94)"/>
<path d="M0 0 C0.33 0 0.66 0 1 0 C1.8320582 5.72040011 2.12036664 11.22240116 2 17 C0.68 17 -0.64 17 -2 17 C-1.85941524 14.54126232 -1.71277001 12.08314825 -1.5625 9.625 C-1.52318359 8.92632812 -1.48386719 8.22765625 -1.44335938 7.5078125 C-1.11328125 2.2265625 -1.11328125 2.2265625 0 0 Z " fill="#E2F0F2" transform="translate(269,94)"/>
<path d="M0 0 C2 3 2 3 1.625 5.1875 C1.315625 6.0846875 1.315625 6.0846875 1 7 C1.66 7 2.32 7 3 7 C3.66 10.96 4.32 14.92 5 19 C3.68 18.67 2.36 18.34 1 18 C-0.2039337 14.24600202 -0.09877617 10.66782588 -0.0625 6.75 C-0.05347656 5.48671875 -0.04445313 4.2234375 -0.03515625 2.921875 C-0.02355469 1.95765625 -0.01195313 0.9934375 0 0 Z " fill="#D5EDEE" transform="translate(92,7)"/>
<path d="M0 0 C1.98 0 3.96 0 6 0 C5.71640113 1.4391134 5.42278601 2.87625518 5.125 4.3125 C4.96257812 5.11300781 4.80015625 5.91351563 4.6328125 6.73828125 C4 9 4 9 2 12 C0.40861915 7.82262526 -0.21278058 4.46839215 0 0 Z " fill="#F0F2F4" transform="translate(114,115)"/>
<path d="M0 0 C0.33 0 0.66 0 1 0 C0.47462276 5.0302076 -0.10594786 10.01885239 -1 15 C-1.66 15 -2.32 15 -3 15 C-3 13.68 -3 12.36 -3 11 C-3.66 12.32 -4.32 13.64 -5 15 C-4.91253716 13.56138706 -4.80434652 12.12402492 -4.6875 10.6875 C-4.62949219 9.88699219 -4.57148438 9.08648437 -4.51171875 8.26171875 C-3.90786477 5.59277637 -2.97744031 4.8147717 -1 3 C-0.67 2.01 -0.34 1.02 0 0 Z " fill="#DBDFE2" transform="translate(159,124)"/>
<path d="M0 0 C2.77042109 2.77042109 2.39796106 4.76533805 2.625 8.625 C2.69976563 9.81351563 2.77453125 11.00203125 2.8515625 12.2265625 C2.92503906 13.59941406 2.92503906 13.59941406 3 15 C1.68 15 0.36 15 -1 15 C-0.67 10.05 -0.34 5.1 0 0 Z " fill="#F2F8F9" transform="translate(698,96)"/>
<path d="M0 0 C2.125 0.375 2.125 0.375 4 1 C4.38218767 2.65614657 4.71395102 4.32457024 5 6 C4 7 4 7 1.4375 7.0625 C0.2309375 7.0315625 0.2309375 7.0315625 -1 7 C-1.625 4.625 -1.625 4.625 -2 2 C-1.34 1.34 -0.68 0.68 0 0 Z " fill="#178B99" transform="translate(509,21)"/>
<path d="M0 0 C1.67542976 0.28604898 3.34385343 0.61781233 5 1 C4.67 2.65 4.34 4.3 4 6 C2.125 6.625 2.125 6.625 0 7 C-0.66 6.34 -1.32 5.68 -2 5 C-1.46428571 1.46428571 -1.46428571 1.46428571 0 0 Z " fill="#178B99" transform="translate(835,58)"/>
<path d="M0 0 C1.67542976 0.28604898 3.34385343 0.61781233 5 1 C4.67 2.65 4.34 4.3 4 6 C2.125 6.625 2.125 6.625 0 7 C-0.66 6.34 -1.32 5.68 -2 5 C-1.46428571 1.46428571 -1.46428571 1.46428571 0 0 Z " fill="#158A98" transform="translate(535,14)"/>
<path d="M0 0 C1.67542976 0.28604898 3.34385343 0.61781233 5 1 C5.625 2.875 5.625 2.875 6 5 C5.34 5.66 4.68 6.32 4 7 C1.875 6.625 1.875 6.625 0 6 C-0.38218767 4.34385343 -0.71395102 2.67542976 -1 1 C-0.67 0.67 -0.34 0.34 0 0 Z " fill="#198C9A" transform="translate(456,7)"/>
<path d="M0 0 C0.625 1.875 0.625 1.875 1 4 C0.34 4.66 -0.32 5.32 -1 6 C-3.125 5.625 -3.125 5.625 -5 5 C-5.33 3.35 -5.66 1.7 -6 0 C-3.50907189 -1.24546405 -2.58919267 -0.7767578 0 0 Z " fill="#148998" transform="translate(848,59)"/>
<path d="M0 0 C1.67542976 0.28604898 3.34385343 0.61781233 5 1 C5 2.65 5 4.3 5 6 C3.34385343 6.38218767 1.67542976 6.71395102 0 7 C-1 6 -1 6 -1.125 3.5 C-1 1 -1 1 0 0 Z " fill="#128997" transform="translate(810,13)"/>
<path d="M0 0 C1.32 0.33 2.64 0.66 4 1 C4 6.28 4 11.56 4 17 C1.64019954 13.4602993 1.41399192 11.00893712 0.875 6.8125 C0.70742187 5.54019531 0.53984375 4.26789063 0.3671875 2.95703125 C0.24601562 1.98121094 0.12484375 1.00539062 0 0 Z " fill="#2C485D" transform="translate(82,152)"/>
<path d="M0 0 C1.67542976 0.28604898 3.34385343 0.61781233 5 1 C5 2.65 5 4.3 5 6 C1.25 7.125 1.25 7.125 -1 6 C-1.042721 4.33388095 -1.04063832 2.66617115 -1 1 C-0.67 0.67 -0.34 0.34 0 0 Z " fill="#128997" transform="translate(286,58)"/>
<path d="M0 0 C1.67542976 0.28604898 3.34385343 0.61781233 5 1 C5 2.65 5 4.3 5 6 C3.34385343 6.38218767 1.67542976 6.71395102 0 7 C-1 6 -1 6 -1.125 3.5 C-1 1 -1 1 0 0 Z " fill="#128997" transform="translate(465,7)"/>
<path d="M0 0 C1.67542976 0.28604898 3.34385343 0.61781233 5 1 C5 2.65 5 4.3 5 6 C1.25 7.125 1.25 7.125 -1 6 C-1.042721 4.33388095 -1.04063832 2.66617115 -1 1 C-0.67 0.67 -0.34 0.34 0 0 Z " fill="#0E8795" transform="translate(491,58)"/>
<path d="M0 0 C1.65 0.33 3.3 0.66 5 1 C5 2.65 5 4.3 5 6 C3.125 6.625 3.125 6.625 1 7 C0.34 6.34 -0.32 5.68 -1 5 C-0.625 2.375 -0.625 2.375 0 0 Z " fill="#0F8796" transform="translate(482,58)"/>
<path d="M0 0 C1.65 0.33 3.3 0.66 5 1 C5 2.65 5 4.3 5 6 C3.125 6.625 3.125 6.625 1 7 C0.34 6.34 -0.32 5.68 -1 5 C-0.625 2.375 -0.625 2.375 0 0 Z " fill="#108796" transform="translate(277,58)"/>
<path d="M0 0 C0.33 0 0.66 0 1 0 C0.03644647 10.55808656 0.03644647 10.55808656 -1 15 C-0.34 15 0.32 15 1 15 C0.67 15.99 0.34 16.98 0 18 C-0.33 17.67 -0.66 17.34 -1 17 C-1.33 17.66 -1.66 18.32 -2 19 C-2.66 19 -3.32 19 -4 19 C-3.00318287 12.54189755 -1.98363508 6.23428168 0 0 Z " fill="#E0EFF0" transform="translate(137,20)"/>
<path d="M0 0 C1.98 0.495 1.98 0.495 4 1 C3.34 4.63 2.68 8.26 2 12 C1.01 11.67 0.02 11.34 -1 11 C-0.67 7.37 -0.34 3.74 0 0 Z " fill="#D7DBDF" transform="translate(153,139)"/>
<path d="M0 0 C0.33 0 0.66 0 1 0 C2.45295405 8.19256018 2.45295405 8.19256018 0.5625 11.5625 C0.046875 12.036875 -0.46875 12.51125 -1 13 C-2.29243536 8.8803623 -3.26252625 5.33168317 -3 1 C-2.67 1.99 -2.34 2.98 -2 4 C-1.34 4 -0.68 4 0 4 C0 2.68 0 1.36 0 0 Z " fill="#D3D9DE" transform="translate(76,123)"/>
<path d="M0 0 C0.33 0 0.66 0 1 0 C1.33 2.97 1.66 5.94 2 9 C-0.475 10.485 -0.475 10.485 -3 12 C-2.88541307 10.56163249 -2.75790884 9.12429034 -2.625 7.6875 C-2.55539063 6.88699219 -2.48578125 6.08648437 -2.4140625 5.26171875 C-2 3 -2 3 0 0 Z " fill="#F4F5F7" transform="translate(159,117)"/>
<path d="M0 0 C3 2 3 2 3.51171875 4.1640625 C3.56972656 4.97617188 3.62773438 5.78828125 3.6875 6.625 C3.75324219 7.44226563 3.81898437 8.25953125 3.88671875 9.1015625 C3.92410156 9.72804687 3.96148437 10.35453125 4 11 C3.01 11.495 3.01 11.495 2 12 C0.40861915 7.82262526 -0.21278058 4.46839215 0 0 Z " fill="#D1D4D9" transform="translate(79,149)"/>
<path d="M0 0 C0.33 0.66 0.66 1.32 1 2 C1.66 2 2.32 2 3 2 C2.34 4.64 1.68 7.28 1 10 C0.34 9.67 -0.32 9.34 -1 9 C-0.67 6.03 -0.34 3.06 0 0 Z " fill="#D1D4D9" transform="translate(151,151)"/>
<path d="M0 0 C0.33 0 0.66 0 1 0 C1.08090971 1.62418745 1.13914995 3.24951745 1.1875 4.875 C1.22230469 5.77992187 1.25710937 6.68484375 1.29296875 7.6171875 C1.19628906 8.40351563 1.09960938 9.18984375 1 10 C0.01 10.66 -0.98 11.32 -2 12 C-2.21278058 7.53160785 -1.59138085 4.17737474 0 0 Z " fill="#D8EFEF" transform="translate(140,7)"/>
</svg>
